G04 DipTrace 2.4.0.2*
%INBottom.gbr*%
%MOIN*%
%ADD13C,0.0236*%
%ADD14C,0.0157*%
%ADD15C,0.026*%
%ADD16C,0.013*%
%ADD17R,0.063X0.0709*%
%ADD18R,0.0709X0.063*%
%ADD19R,0.0236X0.1378*%
%ADD20R,0.0669X0.0669*%
%ADD21C,0.0669*%
%ADD31C,0.04X0.01*%
%ADD32C,0.01*%
%ADD35C,0.0394*%
%FSLAX44Y44*%
G04*
G70*
G90*
G75*
G01*
%LNBottom*%
%LPD*%
X19000Y-24398D2*
D13*
X20500D1*
X6862Y-2160D2*
X7660D1*
X7938Y-2438D1*
X6862Y-2160D2*
Y-1563D1*
X9750D1*
Y-4522D1*
X9713Y-4560D1*
Y-5412D1*
X9125Y-6000D1*
X3500Y-375D1*
X375D1*
Y-31000D1*
X20500D1*
Y-375D1*
X3500D1*
X9319Y-4560D2*
D14*
Y-2438D1*
X9040D1*
X11000Y-1000D2*
X6313D1*
Y-2563D1*
X8313Y-4563D1*
X8923D1*
X8925Y-4560D1*
X11826Y-1861D2*
Y-2201D1*
X11937Y-2312D1*
Y-3063D1*
X11681Y-3319D1*
Y-4560D1*
X11437Y-2688D2*
X11312D1*
Y-4535D1*
X11287Y-4560D1*
X10500Y-1938D2*
Y-4560D1*
X12500Y-1000D2*
X12063D1*
X10875Y-2188D1*
Y-4579D1*
X10894Y-4560D1*
X19000Y-27000D2*
Y-25500D1*
X11780Y-27000D2*
D13*
X17898D1*
Y-24000D1*
Y-21000D1*
Y-15898D1*
X17000Y-15000D1*
Y-10500D1*
X12375Y-5875D1*
X12125D1*
X10625D1*
X10125Y-5375D1*
Y-4579D1*
X10106Y-4560D1*
X5220Y-24000D2*
X7780D1*
X9220D1*
X11780D1*
X13220D1*
X15780D1*
X17898D1*
X9220Y-21000D2*
X11780D1*
X17898D1*
X9220Y-27000D2*
X11780D1*
X12125Y-5875D2*
Y-4610D1*
X12075Y-4560D1*
X17898Y-27000D2*
D3*
X9220Y-21000D2*
X5750D1*
X2375Y-17625D1*
Y-15000D1*
D31*
X20500Y-24398D3*
D3*
X6862Y-2160D3*
X11000Y-1000D3*
X11826Y-1861D3*
X11437Y-2688D3*
X10500Y-1938D3*
X12500Y-1000D3*
X2375Y-15000D3*
X656Y-888D2*
D15*
X5929D1*
X13013D2*
X20346D1*
X656Y-1147D2*
X5908D1*
X13000D2*
X20346D1*
X656Y-1406D2*
X5908D1*
X6716D2*
X10687D1*
X12814D2*
X20346D1*
X656Y-1664D2*
X5908D1*
X6716D2*
X10058D1*
X12310D2*
X20346D1*
X656Y-1923D2*
X5908D1*
X6716D2*
X7260D1*
X9679D2*
X9977D1*
X12347D2*
X20346D1*
X656Y-2181D2*
X5908D1*
X6716D2*
X7260D1*
X9679D2*
X10041D1*
X12314D2*
X20346D1*
X656Y-2440D2*
X5908D1*
X6748D2*
X7260D1*
X9720D2*
X10098D1*
X12339D2*
X20346D1*
X656Y-2698D2*
X5937D1*
X7008D2*
X7260D1*
X9720D2*
X10098D1*
X12339D2*
X20346D1*
X656Y-2957D2*
X6148D1*
X9720D2*
X10098D1*
X12339D2*
X20346D1*
X656Y-3215D2*
X6408D1*
X7523D2*
X8917D1*
X9720D2*
X10098D1*
X12306D2*
X20346D1*
X656Y-3474D2*
X2214D1*
X3277D2*
X6664D1*
X7783D2*
X8917D1*
X9720D2*
X10098D1*
X12083D2*
X17723D1*
X18790D2*
X20346D1*
X656Y-3732D2*
X2092D1*
X3394D2*
X6923D1*
X8039D2*
X8482D1*
X12558D2*
X17605D1*
X18908D2*
X20346D1*
X656Y-3991D2*
X2092D1*
X3394D2*
X7183D1*
X8299D2*
X8482D1*
X12558D2*
X17601D1*
X18908D2*
X20346D1*
X656Y-4249D2*
X2092D1*
X3394D2*
X7443D1*
X12558D2*
X17601D1*
X18908D2*
X20346D1*
X656Y-4508D2*
X2092D1*
X3394D2*
X7699D1*
X12594D2*
X17601D1*
X18908D2*
X20346D1*
X656Y-4766D2*
X2092D1*
X3394D2*
X7959D1*
X12607D2*
X17601D1*
X18908D2*
X20346D1*
X656Y-5025D2*
X2092D1*
X3394D2*
X8482D1*
X12607D2*
X17601D1*
X18908D2*
X20346D1*
X656Y-5283D2*
X2092D1*
X3394D2*
X8482D1*
X12607D2*
X17601D1*
X18908D2*
X20346D1*
X656Y-5542D2*
X2137D1*
X3350D2*
X8482D1*
X12712D2*
X17650D1*
X18863D2*
X20346D1*
X656Y-5801D2*
X9879D1*
X12972D2*
X20346D1*
X656Y-6059D2*
X10139D1*
X13228D2*
X20346D1*
X656Y-6318D2*
X10492D1*
X13488D2*
X20346D1*
X656Y-6576D2*
X12404D1*
X13748D2*
X20346D1*
X656Y-6835D2*
X1101D1*
X1900D2*
X12664D1*
X14003D2*
X20346D1*
X656Y-7093D2*
X1016D1*
X1986D2*
X12924D1*
X14263D2*
X20346D1*
X656Y-7352D2*
X1093D1*
X1908D2*
X13184D1*
X14523D2*
X20346D1*
X656Y-7610D2*
X13440D1*
X14779D2*
X20346D1*
X656Y-7869D2*
X13700D1*
X15039D2*
X20346D1*
X656Y-8127D2*
X13959D1*
X15298D2*
X20346D1*
X656Y-8386D2*
X14215D1*
X15554D2*
X20346D1*
X656Y-8644D2*
X1187D1*
X1815D2*
X14475D1*
X15814D2*
X20346D1*
X656Y-8903D2*
X1028D1*
X1973D2*
X14735D1*
X16074D2*
X20346D1*
X656Y-9161D2*
X1044D1*
X1953D2*
X14991D1*
X16330D2*
X20346D1*
X656Y-9420D2*
X1292D1*
X1709D2*
X15251D1*
X16590D2*
X20346D1*
X656Y-9678D2*
X15510D1*
X16849D2*
X20346D1*
X656Y-9937D2*
X15766D1*
X17105D2*
X20346D1*
X656Y-10196D2*
X16026D1*
X17365D2*
X20346D1*
X656Y-10454D2*
X16286D1*
X17479D2*
X20346D1*
X656Y-10713D2*
X16517D1*
X17483D2*
X20346D1*
X656Y-10971D2*
X16517D1*
X17483D2*
X20346D1*
X656Y-11230D2*
X2417D1*
X3074D2*
X16517D1*
X17483D2*
X17930D1*
X18587D2*
X20346D1*
X656Y-11488D2*
X2120D1*
X3366D2*
X16517D1*
X17483D2*
X17638D1*
X18879D2*
X20346D1*
X656Y-11747D2*
X2092D1*
X3394D2*
X16517D1*
X18912D2*
X20346D1*
X656Y-12005D2*
X2092D1*
X3394D2*
X16517D1*
X18912D2*
X19355D1*
X20203D2*
X20343D1*
X656Y-12264D2*
X2092D1*
X3394D2*
X16517D1*
X18912D2*
X19246D1*
X656Y-12522D2*
X2092D1*
X3394D2*
X16517D1*
X18912D2*
X19278D1*
X656Y-12781D2*
X2092D1*
X3394D2*
X16517D1*
X18912D2*
X19505D1*
X20053D2*
X20346D1*
X656Y-13039D2*
X2092D1*
X3394D2*
X16517D1*
X18912D2*
X19331D1*
X656Y-13298D2*
X2100D1*
X3390D2*
X16517D1*
X17483D2*
X17615D1*
X18904D2*
X19242D1*
X656Y-13556D2*
X2254D1*
X3236D2*
X16517D1*
X17483D2*
X17768D1*
X18749D2*
X19294D1*
X656Y-13815D2*
X16517D1*
X17483D2*
X19550D1*
X20008D2*
X20346D1*
X656Y-14073D2*
X16517D1*
X17483D2*
X19262D1*
X656Y-14332D2*
X16517D1*
X17483D2*
X19201D1*
X656Y-14591D2*
X2003D1*
X2749D2*
X16517D1*
X17483D2*
X19266D1*
X656Y-14849D2*
X1832D1*
X2915D2*
X16517D1*
X17519D2*
X19562D1*
X20000D2*
X20346D1*
X656Y-15108D2*
X1824D1*
X2927D2*
X16534D1*
X17779D2*
X20346D1*
X656Y-15366D2*
X1893D1*
X2854D2*
X16696D1*
X18035D2*
X20346D1*
X656Y-15625D2*
X1893D1*
X2854D2*
X16956D1*
X18287D2*
X20346D1*
X656Y-15883D2*
X1893D1*
X2854D2*
X17212D1*
X18380D2*
X20346D1*
X656Y-16142D2*
X1893D1*
X2854D2*
X17415D1*
X18380D2*
X20346D1*
X656Y-16400D2*
X1893D1*
X2854D2*
X17415D1*
X18380D2*
X20346D1*
X656Y-16659D2*
X1893D1*
X2854D2*
X17415D1*
X18380D2*
X20346D1*
X656Y-16917D2*
X1893D1*
X2854D2*
X17415D1*
X18380D2*
X20346D1*
X656Y-17176D2*
X1893D1*
X2854D2*
X17415D1*
X18380D2*
X20346D1*
X656Y-17434D2*
X1893D1*
X2854D2*
X17415D1*
X18380D2*
X20346D1*
X656Y-17693D2*
X1897D1*
X3114D2*
X17415D1*
X18380D2*
X20346D1*
X656Y-17951D2*
X2031D1*
X3370D2*
X17415D1*
X18380D2*
X20346D1*
X656Y-18210D2*
X2291D1*
X3630D2*
X17415D1*
X18380D2*
X20346D1*
X656Y-18469D2*
X2551D1*
X3890D2*
X17415D1*
X18380D2*
X20346D1*
X656Y-18727D2*
X2807D1*
X4146D2*
X8807D1*
X9631D2*
X11121D1*
X12436D2*
X17415D1*
X18380D2*
X20346D1*
X656Y-18986D2*
X3066D1*
X4405D2*
X8612D1*
X9830D2*
X11121D1*
X12436D2*
X17415D1*
X18380D2*
X20346D1*
X656Y-19244D2*
X3326D1*
X4665D2*
X8564D1*
X9878D2*
X11121D1*
X12436D2*
X17415D1*
X18380D2*
X20346D1*
X656Y-19503D2*
X3582D1*
X4921D2*
X8625D1*
X9817D2*
X11121D1*
X12436D2*
X17415D1*
X18380D2*
X20346D1*
X656Y-19761D2*
X3842D1*
X5181D2*
X8856D1*
X9586D2*
X11121D1*
X12436D2*
X17415D1*
X18380D2*
X20346D1*
X656Y-20020D2*
X4102D1*
X5441D2*
X17415D1*
X18380D2*
X20346D1*
X656Y-20278D2*
X4357D1*
X5696D2*
X17415D1*
X18380D2*
X20346D1*
X656Y-20537D2*
X4617D1*
X5956D2*
X8710D1*
X9732D2*
X11268D1*
X12290D2*
X17415D1*
X18380D2*
X20346D1*
X656Y-20795D2*
X4877D1*
X18380D2*
X20346D1*
X656Y-21054D2*
X5133D1*
X18380D2*
X20346D1*
X656Y-21312D2*
X5393D1*
X18380D2*
X20346D1*
X656Y-21571D2*
X8840D1*
X9602D2*
X11402D1*
X12160D2*
X17415D1*
X18380D2*
X20346D1*
X656Y-21829D2*
X4703D1*
X5737D2*
X7122D1*
X8437D2*
X8706D1*
X9736D2*
X11121D1*
X12436D2*
X12705D1*
X13735D2*
X15121D1*
X16439D2*
X17415D1*
X18380D2*
X20346D1*
X656Y-22088D2*
X4577D1*
X5863D2*
X7122D1*
X8437D2*
X8580D1*
X9862D2*
X11121D1*
X12436D2*
X12579D1*
X13861D2*
X15121D1*
X16439D2*
X17415D1*
X18380D2*
X20346D1*
X656Y-22346D2*
X4573D1*
X5867D2*
X7122D1*
X8437D2*
X8572D1*
X9866D2*
X11121D1*
X12436D2*
X12575D1*
X13869D2*
X15121D1*
X16439D2*
X17415D1*
X18380D2*
X20346D1*
X656Y-22605D2*
X4686D1*
X5753D2*
X7122D1*
X8437D2*
X8685D1*
X9752D2*
X11121D1*
X12436D2*
X12685D1*
X13756D2*
X15121D1*
X16439D2*
X17415D1*
X18380D2*
X20346D1*
X656Y-22864D2*
X17415D1*
X18380D2*
X20346D1*
X656Y-23122D2*
X17415D1*
X18380D2*
X20346D1*
X656Y-23381D2*
X4934D1*
X5506D2*
X7492D1*
X8063D2*
X8933D1*
X9505D2*
X11495D1*
X12067D2*
X12936D1*
X13508D2*
X15494D1*
X16066D2*
X17415D1*
X18380D2*
X20346D1*
X656Y-23639D2*
X4629D1*
X18380D2*
X20346D1*
X656Y-23898D2*
X4532D1*
X19716D2*
X20346D1*
X656Y-24156D2*
X4540D1*
X19716D2*
X20346D1*
X656Y-24415D2*
X4666D1*
X19716D2*
X20346D1*
X656Y-24673D2*
X8893D1*
X9549D2*
X11121D1*
X12436D2*
X17415D1*
X19716D2*
X20346D1*
X656Y-24932D2*
X8637D1*
X9805D2*
X11121D1*
X12436D2*
X17415D1*
X19716D2*
X20346D1*
X656Y-25190D2*
X8564D1*
X9878D2*
X11121D1*
X12436D2*
X17415D1*
X19679D2*
X20346D1*
X656Y-25449D2*
X8600D1*
X9838D2*
X11121D1*
X12436D2*
X17415D1*
X19679D2*
X20346D1*
X656Y-25707D2*
X1552D1*
X2448D2*
X8783D1*
X9659D2*
X11121D1*
X12436D2*
X17415D1*
X19679D2*
X20346D1*
X656Y-25966D2*
X1463D1*
X2538D2*
X17415D1*
X19679D2*
X20346D1*
X656Y-26224D2*
X1511D1*
X2489D2*
X17415D1*
X19403D2*
X20346D1*
X656Y-26483D2*
X1796D1*
X2201D2*
X8767D1*
X9675D2*
X11324D1*
X12233D2*
X17220D1*
X19639D2*
X20346D1*
X656Y-26741D2*
X8576D1*
X19639D2*
X20346D1*
X656Y-27000D2*
X8523D1*
X19639D2*
X20346D1*
X656Y-27259D2*
X8576D1*
X19639D2*
X20346D1*
X656Y-27517D2*
X8767D1*
X9675D2*
X11324D1*
X12233D2*
X17220D1*
X19639D2*
X20346D1*
X656Y-27776D2*
X20346D1*
X656Y-28034D2*
X20346D1*
X656Y-28293D2*
X20346D1*
X656Y-28551D2*
X20346D1*
X656Y-28810D2*
X20346D1*
X656Y-29068D2*
X20346D1*
X656Y-29327D2*
X20346D1*
X656Y-29585D2*
X20346D1*
X656Y-29844D2*
X20346D1*
X656Y-30102D2*
X20346D1*
X656Y-30361D2*
X20346D1*
X656Y-30619D2*
X20346D1*
X12054Y-3534D2*
X12530D1*
Y-4402D1*
X12564Y-4491D1*
X12580Y-4610D1*
Y-5467D1*
X12697Y-5553D1*
X17322Y-10178D1*
X17400Y-10282D1*
X17445Y-10407D1*
X17455Y-10500D1*
Y-14808D1*
X18220Y-15576D1*
X18297Y-15679D1*
X18343Y-15805D1*
X18353Y-15898D1*
Y-23749D1*
X18490Y-23746D1*
X19691D1*
Y-25050D1*
X19652D1*
Y-26113D1*
X19380D1*
X19377Y-26349D1*
X19613Y-26348D1*
Y-27652D1*
X18553D1*
X18550Y-27691D1*
X17246D1*
Y-27452D1*
X15949Y-27455D1*
X12274D1*
X12161Y-27553D1*
X12048Y-27616D1*
X11924Y-27656D1*
X11795Y-27672D1*
X11666Y-27662D1*
X11541Y-27628D1*
X11425Y-27570D1*
X11322Y-27492D1*
X11287Y-27452D1*
X10610Y-27455D1*
X9713D1*
X9602Y-27553D1*
X9489Y-27616D1*
X9365Y-27656D1*
X9236Y-27672D1*
X9107Y-27662D1*
X8982Y-27628D1*
X8866Y-27570D1*
X8763Y-27492D1*
X8677Y-27394D1*
X8611Y-27283D1*
X8568Y-27160D1*
X8549Y-27032D1*
X8556Y-26902D1*
X8587Y-26776D1*
X8642Y-26659D1*
X8718Y-26554D1*
X8813Y-26466D1*
X8924Y-26397D1*
X9045Y-26352D1*
X9173Y-26330D1*
X9302Y-26333D1*
X9429Y-26361D1*
X9548Y-26413D1*
X9655Y-26487D1*
X9708Y-26542D1*
X11287Y-26545D1*
X11372Y-26466D1*
X11483Y-26397D1*
X11604Y-26352D1*
X11732Y-26330D1*
X11862Y-26333D1*
X11988Y-26361D1*
X12107Y-26413D1*
X12214Y-26487D1*
X12267Y-26542D1*
X13988Y-26545D1*
X17248D1*
X17246Y-26309D1*
X17444D1*
X17442Y-24454D1*
X16270Y-24455D1*
X16161Y-24553D1*
X16048Y-24616D1*
X15924Y-24656D1*
X15795Y-24672D1*
X15666Y-24662D1*
X15541Y-24628D1*
X15425Y-24570D1*
X15322Y-24492D1*
X15287Y-24452D1*
X14610Y-24455D1*
X13713D1*
X13602Y-24553D1*
X13489Y-24616D1*
X13365Y-24656D1*
X13236Y-24672D1*
X13107Y-24662D1*
X12982Y-24628D1*
X12866Y-24570D1*
X12763Y-24492D1*
X12728Y-24452D1*
X12274Y-24455D1*
X12161Y-24553D1*
X12087Y-24594D1*
X12412Y-24596D1*
Y-25861D1*
X11147D1*
Y-24596D1*
X11468D1*
X11322Y-24492D1*
X11287Y-24452D1*
X10610Y-24455D1*
X9713D1*
X9602Y-24553D1*
X9489Y-24616D1*
X9438Y-24632D1*
X9592Y-24717D1*
X9689Y-24803D1*
X9766Y-24908D1*
X9820Y-25026D1*
X9848Y-25152D1*
X9853Y-25228D1*
X9840Y-25357D1*
X9800Y-25481D1*
X9737Y-25594D1*
X9651Y-25691D1*
X9548Y-25770D1*
X9430Y-25825D1*
X9304Y-25855D1*
X9175Y-25859D1*
X9047Y-25836D1*
X8926Y-25788D1*
X8818Y-25717D1*
X8727Y-25624D1*
X8657Y-25515D1*
X8610Y-25394D1*
X8589Y-25266D1*
X8595Y-25137D1*
X8627Y-25011D1*
X8683Y-24894D1*
X8763Y-24792D1*
X8861Y-24708D1*
X9002Y-24637D1*
X8866Y-24570D1*
X8763Y-24492D1*
X8728Y-24452D1*
X8274Y-24455D1*
X8161Y-24553D1*
X8048Y-24616D1*
X7924Y-24656D1*
X7795Y-24672D1*
X7666Y-24662D1*
X7541Y-24628D1*
X7425Y-24570D1*
X7322Y-24492D1*
X7287Y-24452D1*
X6610Y-24455D1*
X5713D1*
X5602Y-24553D1*
X5489Y-24616D1*
X5365Y-24656D1*
X5236Y-24672D1*
X5107Y-24662D1*
X4982Y-24628D1*
X4866Y-24570D1*
X4763Y-24492D1*
X4677Y-24394D1*
X4611Y-24283D1*
X4568Y-24160D1*
X4549Y-24032D1*
X4556Y-23902D1*
X4587Y-23776D1*
X4642Y-23659D1*
X4718Y-23554D1*
X4813Y-23466D1*
X4924Y-23397D1*
X5045Y-23352D1*
X5173Y-23330D1*
X5302Y-23333D1*
X5429Y-23361D1*
X5548Y-23413D1*
X5655Y-23487D1*
X5708Y-23542D1*
X7287Y-23545D1*
X7372Y-23466D1*
X7483Y-23397D1*
X7604Y-23352D1*
X7732Y-23330D1*
X7862Y-23333D1*
X7988Y-23361D1*
X8107Y-23413D1*
X8214Y-23487D1*
X8267Y-23542D1*
X8726Y-23545D1*
X8813Y-23466D1*
X8924Y-23397D1*
X9045Y-23352D1*
X9173Y-23330D1*
X9302Y-23333D1*
X9429Y-23361D1*
X9548Y-23413D1*
X9655Y-23487D1*
X9708Y-23542D1*
X11287Y-23545D1*
X11372Y-23466D1*
X11483Y-23397D1*
X11604Y-23352D1*
X11732Y-23330D1*
X11862Y-23333D1*
X11988Y-23361D1*
X12107Y-23413D1*
X12214Y-23487D1*
X12267Y-23542D1*
X12726Y-23545D1*
X12813Y-23466D1*
X12924Y-23397D1*
X13045Y-23352D1*
X13173Y-23330D1*
X13302Y-23333D1*
X13429Y-23361D1*
X13548Y-23413D1*
X13655Y-23487D1*
X13708Y-23542D1*
X15287Y-23545D1*
X15372Y-23466D1*
X15483Y-23397D1*
X15604Y-23352D1*
X15732Y-23330D1*
X15862Y-23333D1*
X15988Y-23361D1*
X16107Y-23413D1*
X16214Y-23487D1*
X16267Y-23542D1*
X17440Y-23545D1*
X17442Y-21454D1*
X12274Y-21455D1*
X12161Y-21553D1*
X12087Y-21594D1*
X12412Y-21596D1*
Y-22861D1*
X11147D1*
Y-21596D1*
X11468D1*
X11322Y-21492D1*
X11287Y-21452D1*
X10610Y-21455D1*
X9713D1*
X9602Y-21553D1*
X9489Y-21616D1*
X9438Y-21632D1*
X9592Y-21717D1*
X9689Y-21803D1*
X9766Y-21908D1*
X9820Y-22026D1*
X9848Y-22152D1*
X9853Y-22228D1*
X9840Y-22357D1*
X9800Y-22481D1*
X9737Y-22594D1*
X9651Y-22691D1*
X9548Y-22770D1*
X9430Y-22825D1*
X9304Y-22855D1*
X9175Y-22859D1*
X9047Y-22836D1*
X8926Y-22788D1*
X8818Y-22717D1*
X8727Y-22624D1*
X8657Y-22515D1*
X8610Y-22394D1*
X8589Y-22266D1*
X8595Y-22137D1*
X8627Y-22011D1*
X8683Y-21894D1*
X8763Y-21792D1*
X8861Y-21708D1*
X9002Y-21637D1*
X8866Y-21570D1*
X8763Y-21492D1*
X8728Y-21452D1*
X8051Y-21455D1*
X5750D1*
X5622Y-21437D1*
X5501Y-21380D1*
X5428Y-21322D1*
X2053Y-17947D1*
X1975Y-17843D1*
X1930Y-17718D1*
X1920Y-17625D1*
Y-15282D1*
X1853Y-15127D1*
X1838Y-14999D1*
X1854Y-14870D1*
X1900Y-14749D1*
X1974Y-14642D1*
X2071Y-14557D1*
X2186Y-14497D1*
X2312Y-14467D1*
X2442D1*
X2568Y-14499D1*
X2682Y-14559D1*
X2779Y-14646D1*
X2852Y-14753D1*
X2897Y-14874D1*
X2912Y-15000D1*
X2897Y-15129D1*
X2851Y-15250D1*
X2830Y-15280D1*
Y-17440D1*
X3983Y-18589D1*
X5938Y-20544D1*
X8726Y-20545D1*
X8813Y-20466D1*
X8924Y-20397D1*
X9045Y-20352D1*
X9173Y-20330D1*
X9302Y-20333D1*
X9429Y-20361D1*
X9548Y-20413D1*
X9655Y-20487D1*
X9708Y-20542D1*
X11287Y-20545D1*
X11372Y-20466D1*
X11483Y-20397D1*
X11604Y-20352D1*
X11732Y-20330D1*
X11862Y-20333D1*
X11988Y-20361D1*
X12107Y-20413D1*
X12214Y-20487D1*
X12267Y-20542D1*
X13988Y-20545D1*
X17443D1*
X17442Y-16083D1*
X16678Y-15322D1*
X16600Y-15218D1*
X16555Y-15093D1*
X16545Y-15000D1*
Y-10692D1*
X15392Y-9536D1*
X12185Y-6329D1*
X10625Y-6330D1*
X10497Y-6312D1*
X10376Y-6255D1*
X10303Y-6197D1*
X9803Y-5697D1*
X9724Y-5589D1*
X9518Y-5586D1*
X9257D1*
Y-5546D1*
X8903Y-5543D1*
X8821Y-5547D1*
X8509D1*
Y-4942D1*
X8313Y-4939D1*
X8185Y-4917D1*
X8056Y-4838D1*
X6046Y-2829D1*
X5972Y-2723D1*
X5936Y-2576D1*
Y-1000D1*
X5958Y-873D1*
X6022Y-760D1*
X6120Y-676D1*
X6245Y-630D1*
X630D1*
Y-30866D1*
X20370D1*
Y-630D1*
X12831D1*
X12927Y-743D1*
X12978Y-862D1*
X12998Y-1000D1*
X12981Y-1128D1*
X12932Y-1248D1*
X12853Y-1351D1*
X12750Y-1430D1*
X12631Y-1480D1*
X12502Y-1498D1*
X12374Y-1482D1*
X12254Y-1433D1*
X12199Y-1391D1*
X12131Y-1464D1*
X12253Y-1605D1*
X12305Y-1723D1*
X12324Y-1861D1*
X12307Y-1990D1*
X12255Y-2113D1*
X12305Y-2230D1*
X12287Y-2172D1*
X12314Y-2312D1*
Y-3063D1*
X12292Y-3190D1*
X12213Y-3319D1*
X12057Y-3475D1*
X9696Y-3534D2*
X10124D1*
X10123Y-2266D1*
X10071Y-2190D1*
X10020Y-2071D1*
X10002Y-1942D1*
X10018Y-1814D1*
X10066Y-1693D1*
X10144Y-1590D1*
X10246Y-1510D1*
X10365Y-1458D1*
X10493Y-1440D1*
X10621Y-1455D1*
X10742Y-1502D1*
X10846Y-1580D1*
X10894Y-1640D1*
X11031Y-1499D1*
X10874Y-1482D1*
X10754Y-1433D1*
X10680Y-1377D1*
X6692D1*
X6689Y-1909D1*
Y-2409D1*
X7285Y-2999D1*
Y-1746D1*
X8590D1*
Y-1786D1*
X9653Y-1785D1*
Y-2260D1*
X9695Y-2424D1*
X9699Y-3534D1*
X10115D1*
X8903Y-3574D2*
X8940Y-3573D1*
X8942Y-3391D1*
Y-3086D1*
X8593Y-3090D1*
X8590Y-3129D1*
X7411D1*
X8471Y-4188D1*
X8509Y-4117D1*
Y-3573D1*
X8899D1*
X20278Y-12459D2*
X20230Y-12579D1*
X20154Y-12684D1*
X20053Y-12766D1*
X19936Y-12820D1*
X19892Y-12828D1*
X19951Y-12845D1*
X20067Y-12903D1*
X20165Y-12989D1*
X20238Y-13096D1*
X20282Y-13217D1*
X20294Y-13330D1*
X20278Y-13459D1*
X20230Y-13579D1*
X20154Y-13684D1*
X20053Y-13766D1*
X19962Y-13808D1*
X20021Y-13831D1*
X20130Y-13901D1*
X20220Y-13994D1*
X20286Y-14106D1*
X20325Y-14230D1*
X20334Y-14330D1*
X20319Y-14459D1*
X20274Y-14580D1*
X20202Y-14688D1*
X20107Y-14777D1*
X19994Y-14841D1*
X19870Y-14876D1*
X19740Y-14882D1*
X19613Y-14858D1*
X19495Y-14805D1*
X19392Y-14725D1*
X19311Y-14624D1*
X19255Y-14507D1*
X19229Y-14380D1*
X19232Y-14251D1*
X19265Y-14126D1*
X19327Y-14012D1*
X19413Y-13915D1*
X19520Y-13841D1*
X19599Y-13810D1*
X19556Y-13793D1*
X19448Y-13723D1*
X19360Y-13627D1*
X19299Y-13513D1*
X19269Y-13387D1*
X19271Y-13257D1*
X19305Y-13132D1*
X19370Y-13020D1*
X19460Y-12927D1*
X19571Y-12860D1*
X19668Y-12831D1*
X19556Y-12793D1*
X19448Y-12723D1*
X19360Y-12627D1*
X19299Y-12513D1*
X19269Y-12387D1*
X19271Y-12257D1*
X19305Y-12132D1*
X19370Y-12020D1*
X19460Y-11927D1*
X19571Y-11860D1*
X19695Y-11823D1*
X19825Y-11818D1*
X19951Y-11845D1*
X20067Y-11903D1*
X20165Y-11989D1*
X20238Y-12096D1*
X20282Y-12217D1*
X20294Y-12330D1*
X20278Y-12459D1*
X1939Y-9128D2*
X1886Y-9246D1*
X1802Y-9344D1*
X1693Y-9415D1*
X1569Y-9453D1*
X1440Y-9454D1*
X1315Y-9419D1*
X1205Y-9350D1*
X1119Y-9254D1*
X1063Y-9137D1*
X1042Y-9009D1*
X1058Y-8881D1*
X1109Y-8762D1*
X1192Y-8662D1*
X1299Y-8589D1*
X1422Y-8549D1*
X1551Y-8545D1*
X1677Y-8578D1*
X1788Y-8644D1*
X1876Y-8739D1*
X1934Y-8855D1*
X1958Y-9000D1*
X1939Y-9128D1*
Y-7228D2*
X1886Y-7346D1*
X1802Y-7444D1*
X1693Y-7515D1*
X1569Y-7553D1*
X1440Y-7554D1*
X1315Y-7519D1*
X1205Y-7450D1*
X1119Y-7354D1*
X1063Y-7237D1*
X1042Y-7109D1*
X1058Y-6981D1*
X1109Y-6862D1*
X1192Y-6762D1*
X1299Y-6689D1*
X1422Y-6649D1*
X1551Y-6645D1*
X1677Y-6678D1*
X1788Y-6744D1*
X1876Y-6839D1*
X1934Y-6955D1*
X1958Y-7100D1*
X1939Y-7228D1*
X11277Y-18596D2*
X12412D1*
Y-19861D1*
X11147D1*
Y-18596D1*
X11277D1*
X9840Y-19357D2*
X9800Y-19481D1*
X9737Y-19594D1*
X9651Y-19691D1*
X9548Y-19770D1*
X9430Y-19825D1*
X9304Y-19855D1*
X9175Y-19859D1*
X9047Y-19836D1*
X8926Y-19788D1*
X8818Y-19717D1*
X8727Y-19624D1*
X8657Y-19515D1*
X8610Y-19394D1*
X8589Y-19266D1*
X8595Y-19137D1*
X8627Y-19011D1*
X8683Y-18894D1*
X8763Y-18792D1*
X8861Y-18708D1*
X8975Y-18645D1*
X9099Y-18608D1*
X9228Y-18596D1*
X9357Y-18611D1*
X9480Y-18652D1*
X9592Y-18717D1*
X9689Y-18803D1*
X9766Y-18908D1*
X9820Y-19026D1*
X9848Y-19152D1*
X9853Y-19228D1*
X9840Y-19357D1*
X7277Y-21596D2*
X8412D1*
Y-22861D1*
X7147D1*
Y-21596D1*
X7277D1*
X5840Y-22357D2*
X5800Y-22481D1*
X5737Y-22594D1*
X5651Y-22691D1*
X5548Y-22770D1*
X5430Y-22825D1*
X5304Y-22855D1*
X5175Y-22859D1*
X5047Y-22836D1*
X4926Y-22788D1*
X4818Y-22717D1*
X4727Y-22624D1*
X4657Y-22515D1*
X4610Y-22394D1*
X4589Y-22266D1*
X4595Y-22137D1*
X4627Y-22011D1*
X4683Y-21894D1*
X4763Y-21792D1*
X4861Y-21708D1*
X4975Y-21645D1*
X5099Y-21608D1*
X5228Y-21596D1*
X5357Y-21611D1*
X5480Y-21652D1*
X5592Y-21717D1*
X5689Y-21803D1*
X5766Y-21908D1*
X5820Y-22026D1*
X5848Y-22152D1*
X5853Y-22228D1*
X5840Y-22357D1*
X15277Y-21596D2*
X16412D1*
Y-22861D1*
X15147D1*
Y-21596D1*
X15277D1*
X13840Y-22357D2*
X13800Y-22481D1*
X13737Y-22594D1*
X13651Y-22691D1*
X13548Y-22770D1*
X13430Y-22825D1*
X13304Y-22855D1*
X13175Y-22859D1*
X13047Y-22836D1*
X12926Y-22788D1*
X12818Y-22717D1*
X12727Y-22624D1*
X12657Y-22515D1*
X12610Y-22394D1*
X12589Y-22266D1*
X12595Y-22137D1*
X12627Y-22011D1*
X12683Y-21894D1*
X12763Y-21792D1*
X12861Y-21708D1*
X12975Y-21645D1*
X13099Y-21608D1*
X13228Y-21596D1*
X13357Y-21611D1*
X13480Y-21652D1*
X13592Y-21717D1*
X13689Y-21803D1*
X13766Y-21908D1*
X13820Y-22026D1*
X13848Y-22152D1*
X13853Y-22228D1*
X13840Y-22357D1*
X2498Y-26129D2*
X2450Y-26249D1*
X2374Y-26354D1*
X2273Y-26436D1*
X2156Y-26490D1*
X2028Y-26514D1*
X1899Y-26504D1*
X1776Y-26463D1*
X1668Y-26393D1*
X1580Y-26297D1*
X1519Y-26183D1*
X1489Y-26057D1*
X1491Y-25927D1*
X1525Y-25802D1*
X1590Y-25690D1*
X1680Y-25597D1*
X1791Y-25530D1*
X1915Y-25493D1*
X2045Y-25488D1*
X2171Y-25515D1*
X2287Y-25573D1*
X2385Y-25659D1*
X2458Y-25766D1*
X2502Y-25887D1*
X2514Y-26000D1*
X2498Y-26129D1*
X18189Y-3343D2*
X18454D1*
X18581Y-3362D1*
X18698Y-3419D1*
X18792Y-3508D1*
X18856Y-3621D1*
X18883Y-3773D1*
Y-5348D1*
X18864Y-5476D1*
X18807Y-5592D1*
X18719Y-5686D1*
X18606Y-5750D1*
X18454Y-5777D1*
X18059D1*
X17931Y-5758D1*
X17815Y-5701D1*
X17720Y-5613D1*
X17657Y-5500D1*
X17629Y-5348D1*
Y-3773D1*
X17649Y-3645D1*
X17705Y-3529D1*
X17794Y-3434D1*
X17907Y-3371D1*
X18059Y-3343D1*
X18189D1*
X2677D2*
X2940D1*
X3068Y-3362D1*
X3184Y-3419D1*
X3279Y-3508D1*
X3342Y-3621D1*
X3370Y-3773D1*
Y-5348D1*
X3351Y-5476D1*
X3294Y-5592D1*
X3205Y-5686D1*
X3092Y-5750D1*
X2940Y-5777D1*
X2547D1*
X2419Y-5758D1*
X2303Y-5701D1*
X2209Y-5613D1*
X2145Y-5500D1*
X2117Y-5348D1*
Y-3773D1*
X2137Y-3645D1*
X2193Y-3529D1*
X2282Y-3434D1*
X2395Y-3371D1*
X2547Y-3343D1*
X2677D1*
X18192Y-11216D2*
X18455D1*
X18583Y-11236D1*
X18699Y-11292D1*
X18794Y-11381D1*
X18857Y-11494D1*
X18885Y-11646D1*
Y-13221D1*
X18866Y-13349D1*
X18809Y-13465D1*
X18720Y-13559D1*
X18607Y-13623D1*
X18455Y-13651D1*
X18062D1*
X17934Y-13631D1*
X17818Y-13575D1*
X17724Y-13486D1*
X17660Y-13373D1*
X17632Y-13221D1*
Y-11646D1*
X17652Y-11518D1*
X17708Y-11402D1*
X17797Y-11308D1*
X17910Y-11244D1*
X18062Y-11216D1*
X18192D1*
X2677D2*
X2940D1*
X3068Y-11236D1*
X3184Y-11292D1*
X3279Y-11381D1*
X3342Y-11494D1*
X3370Y-11646D1*
Y-13221D1*
X3351Y-13349D1*
X3294Y-13465D1*
X3205Y-13559D1*
X3092Y-13623D1*
X2940Y-13651D1*
X2547D1*
X2419Y-13631D1*
X2303Y-13575D1*
X2209Y-13486D1*
X2145Y-13373D1*
X2117Y-13221D1*
Y-11646D1*
X2137Y-11518D1*
X2193Y-11402D1*
X2282Y-11308D1*
X2395Y-11244D1*
X2547Y-11216D1*
X2677D1*
X9713Y-3534D2*
D16*
Y-5585D1*
X7938Y-1747D2*
Y-3128D1*
X7286Y-2438D2*
X7938D1*
X19000Y-23746D2*
Y-24398D1*
X19691D1*
D19*
X12075Y-4560D3*
X11681D3*
X11287D3*
X10894D3*
X10500D3*
X10106D3*
X9713D3*
X9319D3*
X8925D3*
D17*
X7938Y-2438D3*
X9040D3*
X19000Y-27000D3*
X17898D3*
D18*
X19000Y-25500D3*
Y-24398D3*
D20*
X11780Y-19228D3*
D21*
Y-21000D3*
X9220D3*
Y-19228D3*
D20*
X11780Y-22228D3*
D21*
Y-24000D3*
X9220D3*
Y-22228D3*
D20*
X11780Y-25228D3*
D21*
Y-27000D3*
X9220D3*
Y-25228D3*
D20*
X7780Y-22228D3*
D21*
Y-24000D3*
X5220D3*
Y-22228D3*
D20*
X15780D3*
D21*
Y-24000D3*
X13220D3*
Y-22228D3*
%LNBottomC*%
%LPC*%
D32*
X20500Y-24398D3*
D3*
X6862Y-2160D3*
X11000Y-1000D3*
X11826Y-1861D3*
X11437Y-2688D3*
X10500Y-1938D3*
X12500Y-1000D3*
X2375Y-15000D3*
D35*
X11780Y-19228D3*
Y-21000D3*
X9220D3*
Y-19228D3*
X11780Y-22228D3*
Y-24000D3*
X9220D3*
Y-22228D3*
X11780Y-25228D3*
Y-27000D3*
X9220D3*
Y-25228D3*
X7780Y-22228D3*
Y-24000D3*
X5220D3*
Y-22228D3*
X15780D3*
Y-24000D3*
X13220D3*
Y-22228D3*
M02*
